<svg xmlns="http://www.w3.org/2000/svg" width="396.88" height="53.517" viewBox="0 0 396.88 53.517">
  <g id="TEAMWORK_LOGO" data-name="TEAMWORK LOGO" transform="translate(-12 -10.469)">
    <path id="Path_14" data-name="Path 14" d="M31.668,63.951a3.688,3.688,0,0,1-3.688-3.688V17.915H15.688a3.688,3.688,0,0,1,0-7.375h32a3.688,3.688,0,1,1,0,7.375H35.391V60.263A3.688,3.688,0,0,1,31.7,63.951Z" transform="translate(0 -0.009)" fill="#fff"/>
    <path id="Path_15" data-name="Path 15" d="M115.077,63.951a4.048,4.048,0,0,1-1.572-.325,3.512,3.512,0,0,1-2.116-3.354,4.109,4.109,0,0,1,.334-1.6L133,12.7a3.758,3.758,0,0,1,3.389-2.16,3.6,3.6,0,0,1,3.3,2.16l15.26,32.961a3.574,3.574,0,0,1-1.782,4.882,3.881,3.881,0,0,1-1.607.369,3.442,3.442,0,0,1-3.275-2.16L136.378,23.017,118.467,61.87a3.89,3.89,0,0,1-3.389,2.081Z" transform="translate(-12.122 -0.009)" fill="#fff"/>
    <path id="Path_16" data-name="Path 16" d="M163.49,70.215a3.688,3.688,0,1,1,2.634-1.089A3.512,3.512,0,0,1,163.49,70.215Z" transform="translate(-18.029 -6.387)" fill="#fff"/>
    <path id="Path_17" data-name="Path 17" d="M174.32,62.852a3.582,3.582,0,0,1-1.08-2.634V14.191a3.711,3.711,0,0,1,2.564-3.512,5.268,5.268,0,0,1,1.159-.149,3.7,3.7,0,0,1,2.977,1.528l18.7,26.517L217.3,12.058a3.275,3.275,0,0,1,1.861-1.379,9.429,9.429,0,0,1,1.229-.149,3.688,3.688,0,0,1,2.081.676,3.038,3.038,0,0,1,1.4,1.756,7.783,7.783,0,0,1,.167,1.194,3.934,3.934,0,0,1-.7,2.2L201.653,47.082a3.644,3.644,0,0,1-6.032,0L180.607,25.869V60.262a3.582,3.582,0,0,1-1.08,2.634,3.635,3.635,0,0,1-5.207,0Z" transform="translate(-19.666 -0.007)" fill="#fff"/>
    <path id="Path_18" data-name="Path 18" d="M311.408,27.58a3.646,3.646,0,1,1,2.608-1.045A3.512,3.512,0,0,1,311.408,27.58Z" transform="translate(-36.068 -1.192)" fill="#ff5f5f"/>
    <path id="Path_19" data-name="Path 19" d="M316.223,60.79a27.316,27.316,0,0,1-9.658-9.658A25.832,25.832,0,0,1,303,37.733a31.609,31.609,0,0,1,.3-4.285,3.767,3.767,0,0,1,1.4-2.309,3.82,3.82,0,0,1,2.336-.781,3.389,3.389,0,0,1,2.862,1.379A3.766,3.766,0,0,1,310.674,34l-.07.632a21.378,21.378,0,0,0-.228,3.1,18.623,18.623,0,0,0,2.634,9.658,19.765,19.765,0,0,0,7.024,7.024,19.422,19.422,0,0,0,19.44,0,19.738,19.738,0,0,0,7.024-7.024,18.623,18.623,0,0,0,2.634-9.658,19.018,19.018,0,0,0-2.529-9.579,19.4,19.4,0,0,0-7.024-7.112,3.512,3.512,0,0,1-1.826-3.161,3.705,3.705,0,0,1,.562-1.905,3.512,3.512,0,0,1,3.17-1.756,4,4,0,0,1,1.861.483,26.736,26.736,0,0,1,13.17,23.057,25.752,25.752,0,0,1-3.609,13.408,27.606,27.606,0,0,1-9.658,9.658,26.806,26.806,0,0,1-26.868,0Z" transform="translate(-35.492 -0.457)" fill="#ff5f5f"/>
    <path id="Path_20" data-name="Path 20" d="M404.612,63.944a3.758,3.758,0,0,1-3.31-2.081L391.029,40.931H377.051V60.248a3.705,3.705,0,1,1-7.411,0V14.186a3.688,3.688,0,0,1,3.688-3.688h19.958a14.672,14.672,0,0,1,8.28,2.2,14.3,14.3,0,0,1,5.049,5.742,16.428,16.428,0,0,1,1.695,7.261,15.611,15.611,0,0,1-3.758,10.352,13.785,13.785,0,0,1-5.777,3.907L407.9,58.58a4.013,4.013,0,0,1,.369,1.642,3.512,3.512,0,0,1-2.019,3.4,4.013,4.013,0,0,1-1.642.325ZM393.285,33.512a7.332,7.332,0,0,0,5.742-2.309,8.333,8.333,0,0,0,1.932-5.47,9.792,9.792,0,0,0-.667-3.3,6.8,6.8,0,0,0-7.024-4.522H377.051v15.6Z" transform="translate(-43.621 -0.002)" fill="#fff"/>
    <path id="Path_21" data-name="Path 21" d="M427.209,11.576a3.512,3.512,0,0,1,1.08,2.634V60.219a3.688,3.688,0,0,1-3.688,3.688,3.609,3.609,0,0,1-2.634-1.08,3.512,3.512,0,0,1-1.1-2.634V14.184a3.512,3.512,0,0,1,1.1-2.634,3.609,3.609,0,0,1,2.634-1.08,3.512,3.512,0,0,1,2.608,1.106Z" transform="translate(-49.869)" fill="#fff"/>
    <path id="Path_22" data-name="Path 22" d="M97.117,40.937A3.705,3.705,0,0,0,100.8,37.25a3.609,3.609,0,0,0-1.08-2.634,3.512,3.512,0,0,0-2.634-1.106H71.461V17.915H97.117a3.688,3.688,0,0,0,0-7.375H67.738a3.688,3.688,0,0,0-3.688,3.688V60.263a3.688,3.688,0,0,0,3.688,3.688H97.117a3.688,3.688,0,0,0,3.688-3.688,3.591,3.591,0,0,0-1.08-2.634,3.512,3.512,0,0,0-2.634-1.08H71.461V40.937Z" transform="translate(-6.348 -0.009)" fill="#fff"/>
    <path id="Path_23" data-name="Path 23" d="M459.074,11.281a3.152,3.152,0,0,1,1.308,1.844c.07.579.114.948.114,1.1a3.7,3.7,0,0,1-.781,2.239L443.55,37.2l16.165,20.748a3.793,3.793,0,0,1,.781,2.239,3.7,3.7,0,0,1-3.688,3.758A3.512,3.512,0,0,1,453.9,62.5L435.99,39.475a3.653,3.653,0,0,1,0-4.539L453.9,11.949a3.7,3.7,0,0,1,2.906-1.449,3.828,3.828,0,0,1,2.265.781Z" transform="translate(-51.617 -0.004)" fill="#fff"/>
    <path id="Path_24" data-name="Path 24" d="M286.253,11.58a3.688,3.688,0,0,0-6.3,2.634V48.6L264.952,27.367a3.688,3.688,0,0,0-6.032,0L243.905,48.6V14.188a3.688,3.688,0,1,0-7.375,0v46.07A3.7,3.7,0,0,0,239.1,63.77a5.268,5.268,0,0,0,1.159.149,3.705,3.705,0,0,0,2.977-1.528L261.931,35.91l18.7,26.481a3.7,3.7,0,0,0,2.977,1.528,5.268,5.268,0,0,0,1.159-.149,3.69,3.69,0,0,0,2.564-3.512V14.188a3.512,3.512,0,0,0-1.08-2.608Z" transform="translate(-27.385 -0.004)" fill="#fff"/>
  </g>
</svg>
